<?xml version="1.0" encoding="UTF-8"?><svg id="a" xmlns="http://www.w3.org/2000/svg" xmlns:xlink="http://www.w3.org/1999/xlink" viewBox="0 0 500 500"><defs><style>.e{fill:none;}.f{fill:#f57053;}.g{fill:#f8f6ef;}.h{fill:#f9b406;}.i{fill:#f25d44;}.j{fill:#ffc20e;}.k{fill:#c7e9ff;}.l{fill:#1db773;}.m{fill:#13aa62;}.n{fill:#1b324a;}.o{fill:#1a1a1a;}.p{clip-path:url(#c);}.q{clip-path:url(#b);}.r{clip-path:url(#d);}</style><clipPath id="b"><rect class="e" x="79.08" y="135.63" width="63.38" height="76.38"/></clipPath><clipPath id="c"><path class="e" d="M340.79,252.15s59.4,37.79,77.2,125.74H239.46s1.2-72.02,62.91-122.23c0,0,17.15,4.51,38.42-3.51Z"/></clipPath><clipPath id="d"><path class="e" d="M340.91,252.29s79.49,23.71,95.53,84.37c16.04,60.67-101.13,67.13-101.13,67.13l-15.56-25.99s59.16-16.74,66.83-44.28"/></clipPath></defs><path class="j" d="M323.62,383.05s-23.82-.25-25.53,4.84c-1.71,5.08,8.38,3.59,8.38,3.59,0,0-18.94,7.14-15.31,13.77,4.9,8.97,42.98-6.75,42.98-6.75l-10.51-15.45Z"/><rect class="k" x="79.08" y="135.63" width="63.38" height="76.38"/><g class="q"><path class="l" d="M114.52,232.91l-3.41-5.38c-20.23-31.91-36.12-66.36-47.26-102.45-4.71,35.87,5.71,72.59,14.93,105.1l-1.42,.4c-9.54-33.64-20.36-71.77-14.5-108.99l.5-3.2,.93,3.1c10.52,35.01,25.5,68.52,44.59,99.68-4.78-13.84-9.87-29.02-13.67-44.15-4.82-19.16-7.04-36.15-6.78-51.94,.09-5.49,.79-12.28,5.44-16.15l.78-.65,35.87,90.09c-3.73-15.6-7.21-31.57-8.81-47.66-2.18-21.98-.44-41.66,5.18-58.49,.95-2.84,2.15-6.09,4.44-8.67,2.5-2.83,6-4.23,9.11-3.67,5.64,1.02,8.08,7.21,9.59,12.49,6.88,24.16,13.58,48.75,19.92,73.07l-1.43,.37c-6.34-24.31-13.03-48.88-19.91-73.04-1.38-4.87-3.6-10.56-8.43-11.44-3.13-.57-6.05,1.28-7.75,3.19-1.89,2.13-3.02,4.81-4.14,8.16-5.55,16.63-7.27,36.1-5.11,57.88,1.94,19.5,6.66,38.87,11.24,57.6l-1.4,.45-38.96-97.85c-3.51,3.6-4.07,9.5-4.15,14.34-.57,35.31,11.17,69.11,22.53,101.79l2.09,6.01Z"/></g><path class="f" d="M218.48,214.77h-89.33V121.78h89.33v92.99Zm-87.08-2.25h84.83V124.03h-84.83v88.49Z"/><path class="n" d="M403.64,245.6c-.03-.29-.07-.59-.12-.92-1.85-12.19-12.32-19.95-20.72-26.18-11.1-8.23-18.85-16.99-23.69-26.79l2.02-1c4.68,9.47,12.21,17.97,23.01,25.98,8.74,6.48,19.62,14.54,21.61,27.65,.05,.36,.1,.71,.13,1.04l-2.24,.22Z"/><path class="n" d="M411.69,283.32c-1.74-14.29-7.78-24.65-15.66-34.63-7.88-9.99-17.31-18.84-23.78-29.79-11.34-19.19-12.75-43.37-25.83-61.43-14.57-20.14-43.39-28.53-66.5-19.37-23.11,9.16-38.35,35.02-35.17,59.67,1.39,10.81,5.91,21.17,6.08,32.07,.16,10.54-3.74,20.66-6.34,30.87-2.6,10.22-5.03,19.82-2.24,30.98,0,0,67.99,40.1,169.45-8.37Z"/><polygon class="j" points="347.15 260.46 305.09 260.46 302.37 255.66 297.08 246.36 287.97 230.32 324.07 230.32 333.08 242.08 340.79 252.15 347.15 260.46"/><path class="l" d="M302.21,255.78s-90.65,100.06-139.95,122.03h116.98"/><path class="j" d="M267.3,192.54c.92,8.38-5.13,15.91-13.51,16.83-8.38,.92-15.91-5.13-16.83-13.51s5.13-15.91,13.51-16.83c8.38-.92,15.91,5.13,16.83,13.51Z"/><path class="k" d="M340.79,252.15c-5.02,2.09-15.48,6.38-21.21,8.31-2.1,.7-3.56,1.09-3.88,.93-.29-.15-1.05-.48-2.08-.93-2.97-1.3-8.23-3.52-11.25-4.8l-5.29-9.3c5.01,.69,21.83,2.32,35.99-4.28l7.71,10.08Z"/><path class="l" d="M417.99,377.89H239.46s.84-50.12,36.94-95.89c7.17-9.1,15.74-18.02,25.97-26.34,0,0,17.16,4.51,38.42-3.51,0,0,59.4,37.79,77.2,125.74Z"/><path class="m" d="M295.75,377.89h-56.29s.84-50.12,36.94-95.89c2.25,.84,4.31,2.31,5.68,4.25,3.9,5.5,3.52,13.02,1.51,19.46s-5.44,12.38-7.29,18.87c-1.85,6.49-1.84,14.09,2.46,19.29,1.67,2.02,3.86,3.52,5.83,5.24,8.06,7.03,12.24,18.17,11.16,28.78Z"/><path class="o" d="M240.58,377.91l-2.25-.04c0-.34,.17-8.42,2.69-21.12,2.33-11.71,7.2-29.67,17.19-48.73l1.99,1.04c-18.87,36.02-19.62,68.52-19.63,68.84Z"/><circle class="j" cx="349.47" cy="187.29" r="15.26" transform="translate(-15.34 342.6) rotate(-51.25)"/><g class="p"><path class="k" d="M372.88,436.44c-1.36,0-2.75-.33-4.12-1-3.32-1.61-6.14-5.04-7.35-8.94-1.99-6.39-.74-13.48,.6-19.62,9.6-44.3,29.95-85.69,58.16-118.88,.08-1.44,.14-2.87,.2-4.31,.4-9.92,.32-20.36-2.96-29.58-3.58-10.06-11.04-17.23-19.01-18.28-10.2-1.34-19.51,6.54-26.48,13.55-.97,.97-1.93,1.96-2.87,2.95-.29,4.41-1.1,8.91-2.03,13.7-8.27,42.39-19.62,84.41-33.73,124.91-5.97,17.14-13.46,33.89-27.68,40.25l-.87,.39-.06-.95c-2.06-33.05,2.98-67.37,14.59-99.25,11.04-30.33,27.76-57.76,48.5-79.6,.13-2.36,.11-4.69-.13-7.02-.8-7.7-4.2-14.12-9.09-17.17-4.74-2.96-11.23-2.95-17.36,.04-5.87,2.86-10.7,7.81-14.77,12.23-5.24,5.69-10.22,11.7-14.92,17.99-7.52,45.54-18.31,90.69-32.13,134.4-1.7,5.37-5.55,14.22-12.27,13.14-6.62-1.06-8.02-10.47-7.21-18.21,2.89-27.67,10.09-54.66,21.4-80.22,7.95-17.97,17.66-34.62,28.98-49.71,.61-3.73,1.21-7.46,1.78-11.2,.58-3.82,1.09-9.41,.21-14.33-.89-4.98-3.02-8.22-6.32-9.62-4.56-1.93-10.07,.42-16.85,7.19-40.85,40.79-68.35,96.22-77.52,156.19l4.45-2.7,.68,1.13-6.86,4.16,.21-1.39c4.45-30.05,13.53-59.12,26.99-86.41,13.46-27.29,30.66-51.49,51.11-71.91,7.2-7.19,13.19-9.64,18.29-7.47,8.8,3.73,8.1,17.49,6.89,25.36-.45,2.92-.91,5.84-1.38,8.75,4.28-5.56,8.77-10.91,13.49-16.03,4.15-4.51,9.09-9.57,15.16-12.53,6.54-3.18,13.5-3.17,18.63,.03,5.23,3.27,8.86,10.05,9.7,18.15,.2,1.91,.25,3.81,.2,5.72,.61-.63,1.23-1.26,1.84-1.88,7.18-7.23,16.82-15.34,27.59-13.93,8.46,1.11,16.34,8.62,20.08,19.15,3.35,9.43,3.44,20.03,3.03,30.08-.04,.87-.07,1.74-.12,2.61,4.99-5.77,10.22-11.29,15.67-16.52,8.51-8.17,21.43-18.79,35.23-16.66,15.26,2.36,24.94,19.38,26.61,34.98,1.77,16.5-3.11,33.17-7.41,47.88l-1.27-.37c4.27-14.59,9.1-31.13,7.36-47.37-1.62-15.1-10.9-31.57-25.5-33.82-13.23-2.04-25.8,8.33-34.11,16.3-5.83,5.59-11.4,11.51-16.69,17.72-2.62,48.1-15.39,95.56-37.04,137.54-2.04,3.95-4.55,8.29-8.6,9.84-.95,.36-1.94,.54-2.94,.54Zm47.16-146.25c-27.47,32.8-47.32,73.48-56.74,116.97-1.3,5.98-2.52,12.87-.62,18.95,1.11,3.56,3.66,6.68,6.67,8.14,2.04,.99,4.12,1.13,6.01,.41,3.61-1.38,5.97-5.48,7.89-9.21,21.3-41.31,33.97-87.94,36.79-135.26Zm-52.44-36.33c-41.91,44.9-65.4,111.52-61.67,175.71,13.2-6.45,20.35-22.56,26.11-39.07,14.09-40.44,25.42-82.41,33.68-124.73,.81-4.15,1.53-8.08,1.88-11.91Zm-57.84,6.31c-26.41,36.2-43.78,81.25-48.57,127.13-.6,5.77,0,15.79,6.11,16.77,5.96,.95,9.54-8.24,10.8-12.23,13.54-42.83,24.17-87.05,31.66-131.66Z"/></g><polygon class="f" points="355.34 377.89 232.7 377.89 232.7 365.98 351.25 365.98 355.34 377.89"/><path class="n" d="M243.79,192.49c-.4-3.68,2.26-7,5.94-7.4l.24,2.24c-2.44,.27-4.21,2.47-3.95,4.92l-2.24,.24Z"/><g/><polygon class="j" points="251.16 377.89 111.22 377.89 72.88 266.05 212.83 266.05 247.08 365.98 251.16 377.89"/><polygon class="f" points="240.33 377.89 100.38 377.89 67.73 282.63 62.05 266.05 201.99 266.05 236.25 365.98 240.33 377.89"/><path class="i" d="M186.97,377.89H100.38l-32.65-95.26c1.76-.64,3.54-1.17,5.38-1.54,5.21-1.05,10.93-.65,15.39,2.25,5.85,3.79,8.45,11.01,9.59,17.89,1.14,6.88,1.24,14.02,3.79,20.51,5.7,14.49,21.77,21.73,36.7,26.15,14.93,4.42,31.24,8.03,41.73,19.54,2.82,3.09,5.04,6.65,6.66,10.48Z"/><rect class="n" x="58.23" y="376.95" width="383.55" height="2.25"/><circle class="k" cx="151.19" cy="322.91" r="9.68"/><path class="j" d="M305.69,241.23c-.96,.1-1.92,.18-2.87,.23-26.83,1.44-50.41-18.34-53.37-45.37-.71-6.44-.18-12.74,1.4-18.65,4.88-18.36,19.84-33.01,39.22-36.89,1.48-.3,2.99-.53,4.52-.7,3.15-.35,6.26-.39,9.3-.17,17,1.23,32.05,10.94,40.37,25.28,1.47,2.52,2.72,5.18,3.74,7.97,1.4,3.81,2.36,7.85,2.82,12.06,3.06,27.99-17.15,53.17-45.14,56.24Z"/><path class="n" d="M278.63,193.27c.18,1.63-.5,3.05-1.53,3.16-1.02,.11-1.99-1.12-2.17-2.76s.5-3.05,1.53-3.16c1.02-.11,2,1.12,2.17,2.76Z"/><path class="n" d="M311.18,189.7c.18,1.63-.5,3.05-1.53,3.16s-2-1.12-2.17-2.76,.5-3.05,1.53-3.16c1.02-.11,1.99,1.12,2.17,2.76Z"/><path class="n" d="M298.42,204.56c-1.1,0-2.16-.37-3.02-1.07-1.01-.81-1.64-1.97-1.78-3.25l-1.37-12.51,2.24-.24,1.37,12.51c.08,.69,.41,1.31,.96,1.74,.54,.43,1.22,.63,1.91,.56l2.59-.28,.25,2.24-2.59,.28c-.18,.02-.36,.03-.54,.03Z"/><path class="n" d="M302.23,215.23c-1.3,0-2.2-.18-2.29-.2l.45-2.2-.23,1.1,.22-1.1s4.22,.81,7.22-1.44c1.83-1.37,2.89-3.62,3.16-6.71l2.24,.2c-.33,3.76-1.7,6.56-4.07,8.32-2.24,1.67-4.87,2.02-6.71,2.02Z"/><g><path class="l" d="M279.23,200.45c-2.28,0-4.47-.77-6.28-2.22-2.1-1.68-3.41-4.08-3.7-6.75-.29-2.67,.47-5.3,2.15-7.39,1.68-2.1,4.08-3.41,6.75-3.7,5.51-.6,10.49,3.39,11.09,8.9h0c.6,5.51-3.39,10.49-8.9,11.09-.37,.04-.74,.06-1.11,.06Zm.03-17.87c-.28,0-.57,.02-.86,.05-2.07,.23-3.93,1.25-5.24,2.87s-1.9,3.66-1.67,5.74c.23,2.07,1.25,3.93,2.87,5.24,1.63,1.31,3.66,1.9,5.74,1.67,4.28-.47,7.38-4.33,6.91-8.61h0c-.44-3.99-3.83-6.96-7.76-6.96Z"/><path class="l" d="M311.43,196.93c-5.06,0-9.43-3.82-9.99-8.96-.6-5.51,3.39-10.49,8.9-11.09,2.67-.29,5.3,.47,7.39,2.15,2.1,1.68,3.41,4.08,3.7,6.75,.29,2.67-.47,5.3-2.15,7.39-1.68,2.1-4.08,3.41-6.75,3.7-.37,.04-.74,.06-1.1,.06Zm.02-17.87c-.29,0-.58,.02-.86,.05-4.28,.47-7.38,4.33-6.91,8.61,.44,3.99,3.83,6.96,7.76,6.96,.28,0,.57-.02,.86-.05,2.07-.23,3.93-1.25,5.24-2.87,1.31-1.63,1.9-3.66,1.67-5.74h0c-.23-2.07-1.25-3.93-2.87-5.24-1.4-1.12-3.1-1.72-4.87-1.72Z"/><path class="l" d="M288.51,190.21l-1.18-1.91c.25-.15,6.18-3.73,15.26-1.72l-.48,2.2c-8.21-1.81-13.54,1.41-13.6,1.44Z"/><rect class="l" x="320.21" y="183.01" width="30.71" height="2.25" transform="translate(-18.92 39.74) rotate(-6.59)"/><rect class="l" x="249.18" y="191.39" width="21.25" height="2.25" transform="translate(-19.41 29.42) rotate(-6.25)"/></g><path class="n" d="M303.72,138.04c-1.66,4.59-3.84,8.95-6.49,13.01-9.61,14.71-25.33,25.31-44.11,27.83-1.52,.2-3.03,.35-4.53,.44,4.69-19.54,20.14-35.41,40.53-40.01,1.56-.35,3.15-.64,4.76-.85,3.32-.44,6.61-.58,9.83-.42Z"/><path class="n" d="M351.21,172.07c-21.05,2.32-40.93-6.12-53.98-21.02-3.12-3.56-5.85-7.49-8.11-11.73,1.56-.35,3.15-.64,4.76-.85,3.32-.44,6.61-.58,9.83-.42,21.17,1.02,39.78,14.49,47.49,34.03Z"/><circle class="n" cx="298.06" cy="121.12" r="14.14" transform="translate(17.03 277.75) rotate(-51.25)"/><path class="n" d="M296.91,137.65c-9.05-1.85-13.55-7.31-15.74-11.57-2.36-4.59-2.58-8.71-2.58-8.88l2.25-.11s.22,3.88,2.38,8.04c2.86,5.51,7.62,8.98,14.14,10.32l-.45,2.2Z"/><path class="n" d="M357.05,184.68c-.13-1.18-.71-2.25-1.64-2.99-.93-.75-2.09-1.08-3.28-.95l-.25-2.24c1.78-.19,3.53,.32,4.93,1.44,1.4,1.12,2.27,2.72,2.47,4.5l-2.24,.24Z"/><path class="l" d="M364.38,400.01c-8.55,1.61-16.08,2.57-21.33,3.12-4.83,.5-7.73,.66-7.73,.66l-15.5-25.9-.05-.09s50.81-14.37,64.35-38.41c1.07-1.9,1.91-3.86,2.47-5.88l-16.59-29.51-13.14-23.38-15.47-27.52-.47-.83s.06,.02,.15,.05c.15,.05,.43,.13,.81,.26,3.78,1.22,18.19,6.16,34.81,15.59,23.32,13.25,51,35.35,59.76,68.48,10.77,40.74-38.52,57.03-72.07,63.34Z"/><path class="m" d="M364.38,400.01c-.03-.14-.05-.27-.08-.41-1.51-8.45-.36-18.26,6.22-23.77,5.02-4.2,11.96-4.96,18.37-6.28s13.39-3.99,16.05-9.97c2.65-5.97-.01-12.87-2.94-18.72-2.93-5.85-6.24-12.21-4.78-18.59,1.19-5.22,5.5-9.7,5.2-15.05-.23-3.92-2.95-7.27-6.08-9.66-3.12-2.38-6.72-4.08-9.81-6.49-6.84-5.33-10.33-14.26-9.84-22.88,23.32,13.25,51,35.35,59.76,68.48,10.77,40.74-38.52,57.03-72.07,63.34Z"/><g class="r"><path class="k" d="M372.88,436.44c-1.36,0-2.75-.33-4.12-1-3.32-1.61-6.14-5.04-7.35-8.94-1.99-6.39-.74-13.48,.6-19.62,9.6-44.3,29.95-85.69,58.16-118.88,.08-1.44,.14-2.87,.2-4.31,.4-9.92,.32-20.36-2.96-29.58-3.58-10.06-11.04-17.23-19.01-18.28-10.2-1.34-19.51,6.54-26.48,13.55-.97,.97-1.93,1.96-2.87,2.95-.29,4.41-1.1,8.91-2.03,13.7-8.27,42.39-19.62,84.41-33.73,124.91-5.97,17.14-13.46,33.89-27.68,40.25l-.87,.39-.06-.95c-2.06-33.05,2.98-67.37,14.59-99.25,11.04-30.33,27.76-57.76,48.5-79.6,.13-2.36,.11-4.69-.13-7.02-.8-7.7-4.2-14.12-9.09-17.17-4.74-2.96-11.23-2.95-17.36,.04-5.87,2.86-10.7,7.81-14.77,12.23-5.24,5.69-10.22,11.7-14.92,17.99-7.52,45.54-18.31,90.69-32.13,134.4-1.7,5.37-5.55,14.22-12.27,13.14-6.62-1.06-8.02-10.47-7.21-18.21,2.89-27.67,10.09-54.66,21.4-80.22,7.95-17.97,17.66-34.62,28.98-49.71,.61-3.73,1.21-7.46,1.78-11.2,.58-3.82,1.09-9.41,.21-14.33-.89-4.98-3.02-8.22-6.32-9.62-4.56-1.93-10.07,.42-16.85,7.19-40.85,40.79-68.35,96.22-77.52,156.19l4.45-2.7,.68,1.13-6.86,4.16,.21-1.39c4.45-30.05,13.53-59.12,26.99-86.41,13.46-27.29,30.66-51.49,51.11-71.91,7.2-7.19,13.19-9.64,18.29-7.47,8.8,3.73,8.1,17.49,6.89,25.36-.45,2.92-.91,5.84-1.38,8.75,4.28-5.56,8.77-10.91,13.49-16.03,4.15-4.51,9.09-9.57,15.16-12.53,6.54-3.18,13.5-3.17,18.63,.03,5.23,3.27,8.86,10.05,9.7,18.15,.2,1.91,.25,3.81,.2,5.72,.61-.63,1.23-1.26,1.84-1.88,7.18-7.23,16.82-15.34,27.59-13.93,8.46,1.11,16.34,8.62,20.08,19.15,3.35,9.43,3.44,20.03,3.03,30.08-.04,.87-.07,1.74-.12,2.61,4.99-5.77,10.22-11.29,15.67-16.52,8.51-8.17,21.43-18.79,35.23-16.66,15.26,2.36,24.94,19.38,26.61,34.98,1.77,16.5-3.11,33.17-7.41,47.88l-1.27-.37c4.27-14.59,9.1-31.13,7.36-47.37-1.62-15.1-10.9-31.57-25.5-33.82-13.23-2.04-25.8,8.33-34.11,16.3-5.83,5.59-11.4,11.51-16.69,17.72-2.62,48.1-15.39,95.56-37.04,137.54-2.04,3.95-4.55,8.29-8.6,9.84-.95,.36-1.94,.54-2.94,.54Zm47.16-146.25c-27.47,32.8-47.32,73.48-56.74,116.97-1.3,5.98-2.52,12.87-.62,18.95,1.11,3.56,3.66,6.68,6.67,8.14,2.04,.99,4.12,1.13,6.01,.41,3.61-1.38,5.97-5.48,7.89-9.21,21.3-41.31,33.97-87.94,36.79-135.26Zm-52.44-36.33c-41.91,44.9-65.4,111.52-61.67,175.71,13.2-6.45,20.35-22.56,26.11-39.07,14.09-40.44,25.42-82.41,33.68-124.73,.81-4.15,1.53-8.08,1.88-11.91Zm-57.84,6.31c-26.41,36.2-43.78,81.25-48.57,127.13-.6,5.77,0,15.79,6.11,16.77,5.96,.95,9.54-8.24,10.8-12.23,13.54-42.83,24.17-87.05,31.66-131.66Z"/></g><path class="o" d="M320.07,378.89l-.61-2.16c.15-.04,14.9-4.25,30.38-11.75,14.15-6.86,31.82-17.93,35.67-31.74l2.17,.6c-1.81,6.51-6.54,12.94-14.05,19.11-5.93,4.87-13.61,9.61-22.84,14.07-15.66,7.58-30.57,11.84-30.72,11.88Z"/><rect class="j" x="100.16" y="166.39" width="106.69" height="72.74"/><rect class="l" x="100.15" y="152.62" width="106.69" height="9.57"/><g><circle class="g" cx="108.82" cy="157.41" r="2.04"/><path class="g" d="M117.71,157.41c0,1.13-.91,2.04-2.04,2.04s-2.04-.91-2.04-2.04,.91-2.04,2.04-2.04,2.04,.91,2.04,2.04Z"/><path class="g" d="M124.56,157.41c0,1.13-.91,2.04-2.04,2.04s-2.04-.91-2.04-2.04,.91-2.04,2.04-2.04,2.04,.91,2.04,2.04Z"/></g><path class="h" d="M206.84,187.47v51.66H113.55c2.42-9.59,10.32-17.73,19.95-20.13,11.21-2.8,23.75,1.55,34.26-3.25,6.12-2.8,10.52-8.28,14.69-13.57,4.17-5.28,8.6-10.75,14.76-13.48,2.96-1.32,6.44-1.76,9.63-1.23Z"/><g><rect class="k" x="107.82" y="173.84" width="41.49" height="25.45"/><rect class="k" x="157.68" y="173.84" width="41.49" height="25.45"/></g><rect class="f" x="107.82" y="206.27" width="91.35" height="4.18"/><rect class="g" x="107.82" y="214.29" width="91.35" height="4.18"/><rect class="l" x="137.81" y="225.44" width="30.68" height="6.97"/><path class="k" d="M325.46,295.81l36.27-5.65s6.62,32.24-13,35.01c-21.81,3.08-23.27-29.36-23.27-29.36Z"/><path class="h" d="M277.02,206.64c-.33,1.27-3.63,1.51-7.37,.54s-6.51-2.79-6.18-4.06c.33-1.27,3.63-1.51,7.37-.54s6.51,2.79,6.18,4.06Z"/><path class="h" d="M332.51,194.99c.59,1.17-1.74,3.53-5.19,5.26-3.46,1.73-6.73,2.19-7.32,1.02-.59-1.17,1.74-3.53,5.19-5.26,3.46-1.73,6.73-2.19,7.32-1.02Z"/></svg>